<svg width="231" height="302" viewBox="0 0 231 302" fill="none" xmlns="http://www.w3.org/2000/svg">
<path d="M228.539 227.46C227.809 230.99 227.019 234.99 225.139 240.09C221.569 249.8 216.689 256.57 214.169 259.77C207.899 267.74 201.569 272.24 196.499 275.79C186.699 282.65 178.009 286.04 172.379 288.22C166.889 290.34 161.219 291.92 155.529 293.43C147.589 295.53 139.559 297.07 131.449 298.24C126.659 298.93 123.199 299.24 118.139 299.72C108.789 300.6 101.069 301.05 95.6686 301.3C64.0786 301.3 32.4786 301.3 0.888598 301.29C0.118598 295.3 -0.471402 286.77 0.528598 276.64C1.5386 266.41 3.4586 249.64 14.8486 232.96C18.7186 227.29 28.0486 214 45.2786 206.87C62.1286 199.9 78.2786 202.23 92.8286 204.34C102.059 205.68 111.919 208.21 117.509 209.64C126.379 211.92 133.699 214.2 138.939 215.94C143.959 217.21 149.089 214.61 150.909 210.15C152.939 205.19 150.409 199.11 145.029 196.96C137.959 193.28 126.549 188.17 111.709 185.28C103.479 183.68 95.6886 183.15 80.1186 182.08C61.6686 180.82 53.0886 181.06 41.7286 176.16C35.9186 173.66 31.4786 170.72 27.9686 166.24C23.7986 160.91 22.4986 155.41 21.9786 153.03C21.4886 150.79 20.2186 145.28 21.7686 138.59C23.2086 132.44 26.5386 127.3 30.4886 122.49C34.8186 117.23 39.9286 112.79 45.3386 108.72C53.8586 102.3 57.4586 100.34 66.7386 94.0596C82.0286 83.7096 89.7986 78.3596 96.0486 69.8496C102.779 60.6796 104.089 53.9196 104.409 51.9996C104.909 49.0396 106.139 41.1796 102.319 32.7696C98.2886 23.8796 90.9886 19.5896 86.9186 17.2596C83.1886 15.1296 76.9486 12.2796 54.6786 10.7396C47.1386 10.2196 36.8386 9.78963 24.5086 10.1196C21.5886 10.1696 19.2586 7.69962 19.4286 4.93962C19.5986 2.27962 22.0286 0.149634 24.8186 0.389634C83.4786 -0.410366 126.769 0.079621 139.469 1.32962C145.059 1.87962 149.699 3.05963 152.969 4.08963C163.679 7.45963 169.949 12.4296 171.549 13.7496C175.019 16.5996 177.269 19.2496 178.079 20.2496C182.749 25.9696 184.879 31.3796 185.639 33.5096C186.289 35.3496 187.659 39.5696 188.059 45.1896C188.559 52.1196 187.399 57.5396 186.659 60.0696C185.289 64.7696 183.339 69.2296 180.609 73.3196C178.149 77.0096 175.339 80.2696 172.209 83.1096C165.959 88.7896 159.909 91.4596 155.099 93.5496C148.079 96.5996 142.389 97.8896 137.619 98.9396C127.879 101.1 122.339 101.67 114.759 102.82C105.199 104.26 97.5486 106.15 82.2586 109.93C82.2586 109.93 63.6386 114.5 48.8786 121.19C47.8086 121.68 43.8386 123.62 39.4286 127.14C36.9086 129.15 35.1186 130.7 33.7786 133.37C33.2886 134.35 30.6886 139.55 33.0086 143.62C34.6986 146.57 38.1386 147.48 39.3886 147.79C47.1886 149.73 52.0986 143.98 68.4786 137.06C75.4786 134.1 80.9886 132.45 82.9686 131.81C90.4486 129.41 98.1486 127.89 105.969 127.02C114.559 126.05 121.079 125.66 123.149 125.61C131.929 125.39 138.589 125.99 142.789 126.38C147.109 126.78 152.299 127.47 159.049 128.62C167.759 130.1 176.159 132.71 184.219 136.34C192.719 140.18 198.309 144.34 199.479 145.2C206.919 150.69 211.519 156.08 212.629 157.41C221.259 167.7 224.719 177.85 226.289 182.61C227.279 185.6 229.929 194.22 230.379 205.73C230.769 215.79 229.329 223.48 228.499 227.48L228.539 227.46Z" fill="#FAFAFD"/>
</svg>
