<svg width="231" height="300" viewBox="0 0 231 300" fill="none" xmlns="http://www.w3.org/2000/svg">
<path d="M146.148 299.2C129.148 299.1 112.148 299 95.1484 298.9C63.5484 298.8 31.9484 298.8 0.3484 298.9C0.0483999 295.3 -0.151597 290.1 0.148403 283.7C0.748403 269.4 1.5484 249.1 14.3484 230.6C17.5484 226 27.0484 213.5 44.0484 205.8C47.0484 204.5 56.2484 200.5 71.4484 199.3C99.7484 197.1 124.048 206.5 138.348 213.6C142.848 214.8 147.548 212.7 149.748 208.9C152.148 204.5 150.748 198.7 146.348 195.7C138.248 191.3 126.348 185.9 111.148 182.9C101.948 181.1 93.2484 180.3 79.5484 179.7C55.2484 178.6 50.6484 181 40.3484 176.8C36.1484 175.1 25.6484 170.7 19.8484 159.7C11.9484 144.5 19.2484 128.6 19.8484 127.3C25.7484 114.9 38.2484 108 50.8484 101.1C53.8484 99.4 56.8484 97.9 56.8484 97.9C62.2484 95.2 65.6484 94.1 77.0484 88.2C88.9484 82 95.0484 78.9 99.0484 74.8C101.448 72.3 110.748 62.3 111.548 49C112.848 27.3 94.6484 7.60001 71.4484 7.60001C62.3484 7.60001 53.1484 7.60001 44.0484 7.60001C42.0484 7.60001 40.3484 5.90001 40.3484 3.90001C40.2484 1.80001 41.9484 0.1 44.0484 0C78.1484 0.1 112.148 0.200003 146.248 0.300003C171.148 3.4 189.248 25.2 187.948 49C186.748 71 169.148 89.6 146.248 92.4C133.448 94.5 122.448 96.8 113.748 98.9C108.548 100.1 96.7484 103 81.8484 107.7C69.6484 111.5 63.3484 113.5 55.6484 117.5C47.2484 121.8 40.9484 126.4 36.7484 129.7C32.1484 132.9 31.0484 139.2 33.9484 143.4C36.4484 147 41.4484 148.4 45.8484 146.6C47.9484 145.2 50.8484 143.4 54.4484 141.4C65.2484 135.4 74.3484 132.5 80.4484 130.6C85.3484 129.1 94.0484 126.4 105.648 124.7C115.148 123.4 129.248 122.4 146.348 124.8C155.048 125.2 175.748 127.5 195.448 142.3C229.248 167.8 230.248 208.1 230.348 212C230.448 221.1 229.248 245.4 211.148 267.5C186.848 297.1 151.748 299 146.148 299.2Z" fill="black"/>
</svg>
