<?xml version="1.0" encoding="UTF-8"?><svg id="a" xmlns="http://www.w3.org/2000/svg" viewBox="0 0 600 600"><defs><style>.b{fill:#3b3c7f;}</style></defs><g><path class="b" d="M90.47,433.94c.97,0,1.73-.22,2.29-.65,.56-.44,.97-1.15,1.25-2.15s.45-2.29,.52-3.88,.11-3.54,.11-5.84v-20.75c0-2.31-.04-4.25-.11-5.84s-.25-2.88-.52-3.88c-.27-1-.69-1.71-1.25-2.15-.56-.44-1.32-.65-2.29-.65v-.47h5.25c1,0,2.08-.05,3.24-.14,1.16-.09,2.34-.2,3.55-.33,1.21-.12,2.39-.23,3.55-.33,1.16-.09,2.24-.14,3.23-.14,1.6,0,3.13,.14,4.6,.42,1.46,.28,2.76,.76,3.89,1.42,1.13,.67,2.04,1.55,2.72,2.64,.68,1.09,1.02,2.46,1.02,4.11,0,2.03-.51,3.72-1.52,5.09-1.01,1.37-2.27,2.52-3.78,3.44s-3.15,1.69-4.93,2.31c-1.78,.62-3.43,1.21-4.93,1.75s-2.77,1.11-3.78,1.68c-1.01,.58-1.52,1.3-1.52,2.17,0,.53,.15,.86,.45,1.01,.3,.14,.59,.21,.86,.21,.48,0,1.04-.15,1.67-.44,.64-.3,1.34-.62,2.13-.98,.78-.36,1.64-.69,2.58-.98,.93-.3,1.95-.44,3.03-.44,1.72,0,3.35,.27,4.89,.82,1.54,.55,2.87,1.33,4.01,2.36,1.13,1.03,2.03,2.26,2.69,3.69,.66,1.43,1,3.04,1,4.81,0,2.03-.33,3.86-1,5.51-.67,1.65-1.63,3.07-2.9,4.25-1.27,1.18-2.84,2.1-4.71,2.76-1.87,.66-4.01,.98-6.43,.98-1.3,0-2.5-.05-3.6-.14-1.1-.09-2.17-.2-3.22-.33-1.04-.12-2.1-.23-3.17-.33-1.07-.09-2.23-.14-3.46-.14h-5.43v-.47Zm8.01-45.24v44.49c1.39,.53,2.69,.91,3.92,1.15,1.22,.23,2.68,.35,4.37,.35,2.11,0,4.01-.29,5.7-.86,1.69-.58,3.13-1.4,4.32-2.48,1.19-1.08,2.1-2.39,2.74-3.95,.64-1.56,.95-3.3,.95-5.23,0-1.4-.19-2.79-.57-4.16-.38-1.37-.93-2.6-1.67-3.69s-1.65-1.97-2.74-2.64c-1.09-.67-2.34-1.01-3.76-1.01-.94,0-1.84,.15-2.72,.44-.88,.3-1.71,.62-2.49,.96s-1.54,.66-2.26,.96c-.72,.3-1.42,.44-2.08,.44-.42,0-.79-.12-1.11-.37-.32-.25-.47-.65-.47-1.21,0-1.03,.42-1.92,1.27-2.69,.84-.76,1.89-1.5,3.15-2.2s2.62-1.4,4.1-2.1c1.48-.7,2.84-1.49,4.1-2.36,1.25-.87,2.3-1.88,3.15-3.04,.85-1.15,1.27-2.51,1.27-4.07,0-1.46-.31-2.7-.93-3.71-.62-1.01-1.44-1.84-2.47-2.48-1.03-.64-2.19-1.11-3.51-1.4-1.31-.3-2.66-.44-4.05-.44-1.48,0-2.88,.11-4.21,.33-1.33,.22-2.66,.55-3.98,.98Z"/><path class="b" d="M145.32,400.38c2.45,0,4.63,.46,6.56,1.38,1.93,.92,3.57,2.17,4.91,3.76,1.34,1.59,2.37,3.44,3.08,5.56,.71,2.12,1.06,4.38,1.06,6.78s-.35,4.66-1.06,6.78c-.71,2.12-1.74,3.97-3.08,5.56-1.34,1.59-2.98,2.84-4.91,3.76s-4.12,1.38-6.56,1.38-4.62-.46-6.54-1.38-3.54-2.17-4.86-3.76c-1.33-1.59-2.35-3.44-3.06-5.56-.71-2.12-1.06-4.38-1.06-6.78s.36-4.66,1.06-6.78c.71-2.12,1.73-3.97,3.06-5.56,1.33-1.59,2.95-2.84,4.86-3.76,1.92-.92,4.1-1.38,6.54-1.38Zm-11.68,17.48c0,2.55,.28,4.88,.84,6.96,.56,2.09,1.35,3.87,2.38,5.35s2.26,2.62,3.69,3.41c1.43,.79,3.02,1.19,4.77,1.19s3.35-.4,4.8-1.19c1.45-.8,2.69-1.93,3.71-3.41s1.83-3.26,2.4-5.35,.86-4.41,.86-6.96-.29-4.91-.86-6.99c-.57-2.07-1.37-3.85-2.4-5.33s-2.26-2.62-3.71-3.41c-1.45-.8-3.05-1.19-4.8-1.19s-3.34,.4-4.77,1.19c-1.43,.79-2.66,1.93-3.69,3.41s-1.82,3.26-2.38,5.33c-.56,2.07-.84,4.4-.84,6.99Z"/><path class="b" d="M170.26,401.31c2.63,0,5.32-.16,8.1-.47,2.77-.31,5.43-.47,7.97-.47,2.02,0,3.69,.5,5.02,1.5s1.99,2.4,1.99,4.21c0,1.25-.33,2.31-.97,3.2s-1.62,1.33-2.92,1.33c-.64,0-1.21-.19-1.72-.58-.51-.39-.77-.91-.77-1.57,.63-.03,1.2-.38,1.7-1.05,.5-.67,.75-1.49,.75-2.45,0-1.09-.4-2.02-1.2-2.78-.8-.76-2.01-1.15-3.64-1.15-.69,0-1.56,.03-2.6,.09-1.04,.06-2.11,.15-3.21,.26-1.1,.11-2.17,.25-3.19,.42-1.03,.17-1.85,.37-2.49,.58v19.02c0,2.31,.04,4.25,.11,5.84,.07,1.59,.25,2.88,.52,3.88s.69,1.71,1.24,2.15c.56,.44,1.32,.65,2.29,.65v.47h-12.22v-.47c.97,0,1.73-.22,2.29-.65,.56-.44,.97-1.15,1.25-2.15s.45-2.29,.52-3.88,.11-3.54,.11-5.84v-7.1c0-2.31-.04-4.25-.11-5.84s-.25-2.88-.52-3.88-.69-1.71-1.25-2.15c-.56-.44-1.32-.65-2.29-.65v-.47h5.25Z"/><path class="b" d="M197.42,426.79c0,.56,.23,1.3,.7,2.22,.47,.92,1.17,1.82,2.1,2.71s2.08,1.64,3.44,2.27,2.93,.92,4.71,.89c1.24-.03,2.44-.23,3.62-.61s2.23-.92,3.15-1.64c.92-.72,1.66-1.6,2.22-2.64,.56-1.04,.84-2.24,.84-3.58,0-1.65-.5-2.93-1.52-3.83-1.01-.9-2.29-1.66-3.82-2.27-1.54-.61-3.19-1.15-4.96-1.63s-3.42-1.11-4.96-1.89-2.81-1.81-3.82-3.08c-1.01-1.28-1.52-3.01-1.52-5.19,0-1.09,.23-2.13,.7-3.11s1.17-1.85,2.1-2.59c.93-.75,2.1-1.34,3.48-1.78,1.39-.44,3-.65,4.84-.65,1.93,0,3.6,.16,5,.49,1.4,.33,2.56,.71,3.46,1.15,1.09,.47,2.01,1.01,2.76,1.64v5.52h-.18c-.88-2.71-2.25-4.77-4.12-6.19-1.87-1.42-4.03-2.13-6.47-2.13-1.42,0-2.69,.19-3.8,.56-1.12,.37-2.06,.88-2.83,1.52-.77,.64-1.35,1.36-1.74,2.17-.39,.81-.59,1.65-.59,2.52,0,1.62,.53,2.89,1.61,3.81,1.07,.92,2.4,1.69,4,2.31,1.6,.62,3.33,1.2,5.21,1.73,1.87,.53,3.61,1.2,5.2,2.01,1.6,.81,2.94,1.86,4.01,3.15,1.07,1.29,1.61,3.01,1.61,5.16,0,1.71-.38,3.18-1.13,4.39-.75,1.21-1.75,2.2-2.99,2.97s-2.67,1.32-4.3,1.66-3.32,.51-5.07,.51c-4.74,0-8.54-.95-11.41-2.85v-5.7h.45Zm11.72-29.21l-4.98-4.02,.27-.47,4.84,2.15,4.84-2.15,.27,.47-5.25,4.02Z"/><path class="b" d="M225.48,401.31c1.27,0,2.33-.2,3.19-.61,.86-.4,1.57-.94,2.13-1.61s1-1.42,1.31-2.24c.32-.82,.54-1.66,.68-2.5s.22-1.64,.25-2.41c.03-.76,.04-1.41,.04-1.94h.45v11.31h3.44v.47h-3.44v22.43c0,1.81,0,3.34-.02,4.6-.01,1.26,.01,2.27,.09,3.04,.07,.76,.22,1.32,.43,1.66,.21,.34,.53,.51,.95,.51,.36,0,.7-.12,1.02-.35s.59-.49,.84-.77c.27-.31,.53-.67,.77-1.07l.45,.23c-.6,1-1.3,1.79-2.08,2.38-.79,.59-1.75,.89-2.9,.89-1.3,0-2.19-.48-2.69-1.45-.5-.97-.75-2.23-.75-3.79v-28.32h-4.16v-.47Z"/><path class="b" d="M240.33,434.4v-.47c.97,0,1.73-.22,2.29-.65,.56-.44,.97-1.15,1.25-2.15s.45-2.29,.52-3.88,.11-3.54,.11-5.84v-7.1c0-2.31-.04-4.25-.11-5.84s-.25-2.88-.52-3.88-.69-1.71-1.25-2.15c-.56-.44-1.32-.65-2.29-.65v-.47h5.16c.93,0,1.96-.05,3.08-.14,1.12-.09,2.23-.2,3.33-.33,1.1-.12,2.14-.23,3.12-.33,.98-.09,1.79-.14,2.42-.14,1,0,2.19,.09,3.58,.26,1.39,.17,2.72,.6,3.98,1.29,1.27,.69,2.34,1.72,3.22,3.11,.87,1.39,1.31,3.31,1.31,5.77v10.61c0,2.31,.04,4.25,.11,5.84,.07,1.59,.25,2.88,.52,3.88,.27,1,.69,1.71,1.25,2.15,.56,.44,1.32,.65,2.29,.65v.47h-12.22v-.47c.96,0,1.73-.22,2.29-.65,.56-.44,.97-1.15,1.24-2.15s.45-2.29,.52-3.88c.07-1.59,.11-3.54,.11-5.84v-5.33c-.03-1.31-.04-2.74-.04-4.3,0-2.62-.38-4.65-1.15-6.1-.77-1.45-1.7-2.52-2.78-3.2-1.09-.69-2.2-1.1-3.35-1.24-1.15-.14-2.11-.21-2.9-.21-1.15,0-2.33,.12-3.55,.37s-2.38,.58-3.46,.98v19.02c0,2.31,.04,4.25,.11,5.84,.07,1.59,.25,2.88,.52,3.88s.69,1.71,1.24,2.15c.56,.44,1.32,.65,2.29,.65v.47h-12.22Z"/><path class="b" d="M275.95,434.4v-.47c.96,0,1.73-.22,2.29-.65,.56-.44,.97-1.15,1.24-2.15s.45-2.29,.52-3.88c.07-1.59,.11-3.54,.11-5.84v-7.1c0-2.31-.04-4.25-.11-5.84-.08-1.59-.25-2.88-.52-3.88s-.69-1.71-1.24-2.15c-.56-.44-1.32-.65-2.29-.65v-.47h8.06v20.1c0,2.31,.04,4.25,.11,5.84,.07,1.59,.25,2.88,.52,3.88,.27,1,.69,1.71,1.24,2.15,.56,.44,1.32,.65,2.29,.65v.47h-12.22Zm5.88-42.34c.84,0,1.56,.3,2.15,.91s.88,1.35,.88,2.22-.29,1.61-.88,2.22c-.59,.61-1.31,.91-2.15,.91s-1.56-.3-2.15-.91c-.59-.61-.88-1.35-.88-2.22s.29-1.61,.88-2.22c.59-.61,1.3-.91,2.15-.91Z"/><path class="b" d="M290.43,433.94c.96,0,1.73-.22,2.29-.65,.56-.44,.97-1.15,1.24-2.15s.45-2.29,.52-3.88c.07-1.59,.11-3.54,.11-5.84v-20.75c0-2.31-.04-4.25-.11-5.84-.08-1.59-.25-2.88-.52-3.88-.27-1-.69-1.71-1.24-2.15-.56-.44-1.32-.65-2.29-.65v-.47h8.06v33.74c0,2.31,.04,4.25,.11,5.84,.07,1.59,.25,2.88,.52,3.88,.27,1,.69,1.71,1.24,2.15,.56,.44,1.32,.65,2.29,.65v.47h-12.22v-.47Zm18.33-11.12c-.94-1.74-1.93-3.05-2.99-3.93s-2.04-1.57-2.94-2.08-1.66-.96-2.26-1.33c-.6-.37-.91-.92-.91-1.64s.32-1.29,.97-1.73c.65-.44,1.46-.83,2.44-1.17,.98-.34,2.04-.68,3.17-1.01,1.13-.33,2.19-.74,3.17-1.24,.98-.5,1.8-1.12,2.44-1.87s.97-1.71,.97-2.9c0-.62-.16-1.14-.48-1.54-.32-.4-.87-.61-1.65-.61v-.47h5.43c.33,0,.54,.12,.63,.37,.09,.25,.14,.53,.14,.84,0,1.53-.42,2.8-1.25,3.81-.83,1.01-1.86,1.85-3.1,2.5-1.24,.65-2.59,1.18-4.05,1.57s-2.81,.75-4.05,1.07c-1.24,.33-2.27,.66-3.1,1.01-.83,.34-1.24,.79-1.24,1.36,0,.69,.43,1.18,1.29,1.5,.86,.31,1.92,.71,3.19,1.19,1.27,.48,2.61,1.17,4.03,2.06,1.42,.89,2.68,2.27,3.8,4.14,.45,.78,.81,1.53,1.09,2.24,.27,.72,.5,1.43,.68,2.13,.18,.7,.37,1.42,.56,2.15,.2,.73,.45,1.49,.75,2.27,.33,.78,.78,1.38,1.36,1.8s1.42,.63,2.54,.63v.47h-5.2c-.54,0-.99-.16-1.34-.49-.35-.33-.65-.73-.91-1.21-.26-.48-.46-1.02-.61-1.61-.15-.59-.3-1.15-.45-1.68-.33-1.37-.67-2.61-1-3.71s-.71-2.06-1.13-2.88Z"/><path class="b" d="M336.28,400.38c2.45,0,4.63,.46,6.56,1.38,1.93,.92,3.57,2.17,4.91,3.76,1.34,1.59,2.37,3.44,3.08,5.56,.71,2.12,1.06,4.38,1.06,6.78s-.35,4.66-1.06,6.78c-.71,2.12-1.74,3.97-3.08,5.56-1.34,1.59-2.98,2.84-4.91,3.76s-4.12,1.38-6.56,1.38-4.62-.46-6.54-1.38-3.54-2.17-4.86-3.76c-1.33-1.59-2.35-3.44-3.06-5.56-.71-2.12-1.06-4.38-1.06-6.78s.36-4.66,1.06-6.78c.71-2.12,1.73-3.97,3.06-5.56,1.33-1.59,2.95-2.84,4.86-3.76,1.92-.92,4.1-1.38,6.54-1.38Zm-11.68,17.48c0,2.55,.28,4.88,.84,6.96,.56,2.09,1.35,3.87,2.38,5.35s2.26,2.62,3.69,3.41c1.43,.79,3.02,1.19,4.77,1.19s3.35-.4,4.8-1.19c1.45-.8,2.69-1.93,3.71-3.41s1.83-3.26,2.4-5.35,.86-4.41,.86-6.96-.29-4.91-.86-6.99c-.57-2.07-1.37-3.85-2.4-5.33s-2.26-2.62-3.71-3.41c-1.45-.8-3.05-1.19-4.8-1.19s-3.34,.4-4.77,1.19c-1.43,.79-2.66,1.93-3.69,3.41s-1.82,3.26-2.38,5.33c-.56,2.07-.84,4.4-.84,6.99Z"/><path class="b" d="M357.46,401.31c1.03,0,1.85,.4,2.47,1.19,.62,.79,1.06,1.64,1.34,2.55,.6,1.99,1.15,3.86,1.65,5.61,.5,1.74,1,3.49,1.52,5.23,.51,1.74,1.05,3.55,1.61,5.42s1.2,3.94,1.92,6.22c.42,1.31,.91,2.29,1.47,2.94,.56,.65,1.17,1.03,1.83,1.12,1.15-3.77,2.21-7.24,3.19-10.42,.98-3.18,1.89-6.26,2.74-9.25,.27-.93,.5-1.99,.68-3.15s.2-2.27,.07-3.32-.49-1.92-1.06-2.62c-.57-.7-1.49-1.05-2.76-1.05h-1v-.47h11.9v.47h-.77c-.78,0-1.51,.34-2.17,1.03-.67,.69-1.26,1.5-1.79,2.45-.53,.95-.98,1.95-1.36,2.99-.38,1.04-.67,1.92-.88,2.64-1.12,3.68-2.26,7.48-3.42,11.4-1.16,3.93-2.48,8.27-3.96,13.04-.78,.09-1.58-.12-2.4-.65-.69-.44-1.42-1.19-2.19-2.27-.77-1.07-1.5-2.7-2.2-4.88-.57-1.93-1.11-3.72-1.61-5.35-.5-1.64-.97-3.21-1.42-4.72s-.9-2.99-1.34-4.44c-.44-1.45-.88-2.97-1.34-4.56-.21-.72-.45-1.46-.72-2.24s-.6-1.5-.99-2.15c-.39-.65-.87-1.2-1.43-1.64-.56-.44-1.24-.65-2.06-.65h-1.09v-.47h5.57Z"/><path class="b" d="M385.03,424.96c0-2.06,.32-3.79,.97-5.21,.65-1.42,1.52-2.61,2.6-3.58s2.31-1.75,3.69-2.36c1.37-.61,2.77-1.12,4.18-1.54,1.42-.42,2.81-.8,4.19-1.12,1.37-.33,2.6-.7,3.69-1.12,1.09-.42,1.95-.93,2.6-1.52,.65-.59,.97-1.37,.97-2.34s-.24-1.74-.72-2.43c-.48-.68-1.1-1.24-1.86-1.66s-1.61-.73-2.56-.93c-.95-.2-1.88-.3-2.78-.3-1.09,0-2.13,.1-3.15,.3s-1.91,.52-2.69,.96-1.42,1-1.9,1.68c-.48,.69-.72,1.51-.72,2.48,0,.44,.07,.82,.23,1.15,.15,.33,.32,.58,.52,.77,.2,.19,.4,.3,.61,.33,.21,.03,.36,0,.45-.09,.12,.34,.12,.68,0,1-.12,.33-.3,.62-.54,.87s-.54,.45-.91,.61-.72,.23-1.09,.23c-.97,0-1.75-.37-2.35-1.12s-.91-1.62-.91-2.62c0-1.15,.32-2.17,.95-3.04,.64-.87,1.5-1.61,2.6-2.2,1.1-.59,2.41-1.04,3.94-1.33,1.52-.3,3.18-.44,4.96-.44,1.27,0,2.59,.13,3.98,.4s2.66,.65,3.83,1.17c1.16,.51,2.11,1.13,2.85,1.85,.74,.72,1.11,1.54,1.11,2.48s-.32,1.68-.97,2.22c-.65,.55-1.51,1-2.58,1.36s-2.29,.67-3.64,.93c-1.36,.27-2.75,.58-4.19,.96-1.43,.37-2.83,.86-4.18,1.45-1.36,.59-2.57,1.4-3.65,2.43-1.07,1.03-1.93,2.32-2.58,3.88s-.97,3.47-.97,5.75c0,1.21,.18,2.34,.54,3.39,.36,1.04,.87,1.95,1.52,2.71,.65,.76,1.43,1.36,2.33,1.8s1.92,.65,3.03,.65c1.24,0,2.51-.34,3.8-1.03,1.3-.68,2.49-1.78,3.58-3.27,1.09-1.5,1.98-3.44,2.67-5.82,.69-2.38,1.04-5.27,1.04-8.67,0-.53-.05-1.02-.14-1.47-.09-.45-.3-.72-.63-.82,0-.16,.11-.3,.34-.44,.23-.14,.52-.21,.88-.21,.81,0,1.47,.2,1.97,.61,.5,.41,.88,.95,1.13,1.64,.26,.69,.42,1.46,.5,2.34,.07,.87,.11,1.78,.11,2.71v2.59c0,.7,0,1.38,.02,2.03,.01,.65,.02,1.37,.02,2.15v3.04c0,.97,.12,1.76,.36,2.38s.54,1.11,.91,1.47c.36,.36,.74,.6,1.13,.72,.39,.12,.74,.19,1.04,.19v.47h-3.22c-1.21,0-2.23-.52-3.05-1.57-.83-1.04-1.24-2.45-1.24-4.23v-7.99c-.39,1.99-.9,3.89-1.52,5.68-.62,1.79-1.42,3.36-2.4,4.7-.98,1.34-2.17,2.4-3.55,3.18-1.39,.78-3.08,1.17-5.07,1.17-1.45,0-2.79-.26-4.03-.77-1.24-.51-2.31-1.23-3.22-2.15s-1.61-2.02-2.1-3.29c-.5-1.28-.75-2.66-.75-4.16Z"/><path class="b" d="M417.43,434.4v-.47c.97,0,1.73-.22,2.29-.65,.56-.44,.97-1.15,1.25-2.15s.45-2.29,.52-3.88,.11-3.54,.11-5.84v-7.1c0-2.31-.04-4.25-.11-5.84s-.25-2.88-.52-3.88-.69-1.71-1.25-2.15c-.56-.44-1.32-.65-2.29-.65v-.47h5.16c.93,0,1.96-.05,3.08-.14,1.12-.09,2.23-.2,3.33-.33,1.1-.12,2.14-.23,3.12-.33,.98-.09,1.79-.14,2.42-.14,1,0,2.19,.09,3.58,.26,1.39,.17,2.72,.6,3.98,1.29,1.27,.69,2.34,1.72,3.22,3.11,.87,1.39,1.31,3.31,1.31,5.77v10.61c0,2.31,.04,4.25,.11,5.84,.07,1.59,.25,2.88,.52,3.88,.27,1,.69,1.71,1.25,2.15,.56,.44,1.32,.65,2.29,.65v.47h-12.22v-.47c.96,0,1.73-.22,2.29-.65,.56-.44,.97-1.15,1.24-2.15s.45-2.29,.52-3.88c.07-1.59,.11-3.54,.11-5.84v-5.33c-.03-1.31-.04-2.74-.04-4.3,0-2.62-.38-4.65-1.15-6.1-.77-1.45-1.7-2.52-2.78-3.2-1.09-.69-2.2-1.1-3.35-1.24-1.15-.14-2.11-.21-2.9-.21-1.15,0-2.33,.12-3.55,.37s-2.38,.58-3.46,.98v19.02c0,2.31,.04,4.25,.11,5.84,.07,1.59,.25,2.88,.52,3.88s.69,1.71,1.24,2.15c.56,.44,1.32,.65,2.29,.65v.47h-12.22Z"/><path class="b" d="M449.75,453.29c.69,.56,1.57,.84,2.62,.84s1.85-.3,2.47-.91c.62-.61,1.09-1.36,1.4-2.24s.52-1.85,.61-2.87c.09-1.03,.14-1.96,.14-2.8v-30.99c0-2.31-.04-4.25-.11-5.84s-.25-2.88-.52-3.88-.69-1.71-1.25-2.15c-.56-.44-1.32-.65-2.29-.65v-.47h8.06v43.28c0,1.18-.17,2.38-.5,3.6-.33,1.22-.84,2.31-1.52,3.3-.68,.98-1.52,1.78-2.51,2.38-1,.61-2.16,.91-3.48,.91-.79,0-1.45-.09-1.99-.28-.54-.19-1.02-.44-1.45-.75l.32-.47Zm9.19-54.96c-.85,0-1.56-.3-2.15-.91-.59-.61-.88-1.35-.88-2.22s.29-1.61,.88-2.22c.59-.61,1.3-.91,2.15-.91s1.56,.3,2.15,.91,.88,1.35,.88,2.22-.29,1.61-.88,2.22c-.59,.61-1.31,.91-2.15,.91Z"/><path class="b" d="M467.4,417.86c0-2.4,.35-4.66,1.06-6.78,.71-2.12,1.73-3.97,3.05-5.56s2.95-2.84,4.86-3.76c1.92-.92,4.1-1.38,6.54-1.38s4.53,.34,6.27,1.01c1.73,.67,3.17,1.53,4.3,2.57,1.13,1.04,1.96,2.19,2.49,3.43,.53,1.25,.79,2.46,.79,3.65,0,2.65-.71,4.72-2.13,6.22-1.42,1.5-3.44,2.24-6.06,2.24-1.81,0-3.35-.22-4.62-.65-1.27-.44-2.41-.91-3.42-1.43s-1.97-.99-2.87-1.43c-.91-.44-1.92-.65-3.03-.65-.54,0-1.03,.15-1.47,.44-.44,.3-.69,.54-.75,.72l-.18-.05c0-.96,.4-1.83,1.2-2.59,.8-.76,1.98-1.15,3.55-1.15,1.17,0,2.29,.33,3.35,.98,1.06,.65,2.07,1.36,3.03,2.13,.96,.76,1.9,1.47,2.81,2.13s1.81,.98,2.72,.98c1.12,0,2.04-.44,2.78-1.33s1.24-2,1.52-3.34c.27-1.34,.29-2.78,.05-4.32-.24-1.54-.77-2.98-1.59-4.32-.81-1.34-1.95-2.45-3.4-3.34-1.45-.89-3.26-1.33-5.43-1.33-2.29,0-4.18,.57-5.68,1.71-1.49,1.14-2.68,2.55-3.55,4.23-.88,1.68-1.49,3.5-1.83,5.44-.35,1.95-.51,3.75-.47,5.4,.03,2.15,.35,4.2,.95,6.15s1.47,3.65,2.6,5.12c1.13,1.47,2.51,2.63,4.14,3.48s3.48,1.28,5.57,1.28c.91,0,1.92-.13,3.05-.4,1.13-.26,2.25-.72,3.35-1.36,1.1-.64,2.13-1.47,3.1-2.5,.96-1.03,1.72-2.29,2.26-3.79l.63,.28c-1.18,2.8-2.97,5.06-5.36,6.78-2.4,1.71-5.29,2.57-8.67,2.57-2.44,0-4.62-.46-6.54-1.38-1.91-.92-3.54-2.17-4.86-3.76s-2.35-3.44-3.05-5.56c-.71-2.12-1.06-4.38-1.06-6.78Z"/></g><path class="b" d="M375.53,310.66c-.53,2.55-1.1,5.44-2.45,9.12-2.58,7.01-6.1,11.9-7.93,14.21-4.53,5.75-9.1,9.01-12.76,11.57-7.08,4.95-13.35,7.4-17.42,8.97-3.96,1.53-8.06,2.67-12.17,3.76-5.73,1.52-11.53,2.63-17.39,3.47-3.46,.5-5.96,.72-9.61,1.07-6.75,.64-12.33,.96-16.23,1.14-22.82,0-45.64,0-68.45,0-.55-4.32-.98-10.49-.26-17.8,.73-7.39,2.12-19.5,10.34-31.55,2.8-4.1,9.54-13.69,21.98-18.84,12.17-5.04,23.84-3.35,34.34-1.83,6.67,.97,13.79,2.79,17.82,3.83,6.4,1.64,11.69,3.29,15.48,4.55,3.63,.92,7.33-.96,8.65-4.18,1.46-3.58-.36-7.98-4.25-9.52-5.11-2.66-13.35-6.35-24.07-8.44-5.95-1.16-11.57-1.54-22.82-2.31-13.32-.91-19.52-.74-27.73-4.28-4.19-1.81-7.4-3.93-9.94-7.17-3.01-3.85-3.95-7.82-4.33-9.54-.36-1.62-1.27-5.6-.15-10.43,1.04-4.44,3.44-8.16,6.3-11.63,3.13-3.8,6.82-7,10.72-9.95,6.16-4.64,8.75-6.05,15.46-10.59,11.04-7.47,16.65-11.34,21.17-17.49,4.86-6.62,5.81-11.5,6.04-12.89,.36-2.14,1.25-7.81-1.51-13.89-2.91-6.42-8.18-9.52-11.12-11.2-2.69-1.54-7.2-3.6-23.29-4.71-5.45-.38-12.88-.69-21.79-.44-2.11,.04-3.79-1.75-3.67-3.74,.12-1.92,1.87-3.46,3.89-3.28,42.36-.58,73.63-.22,82.8,.68,4.04,.4,7.39,1.25,9.75,1.99,7.74,2.43,12.26,6.03,13.42,6.97,2.51,2.06,4.13,3.97,4.72,4.7,3.37,4.13,4.91,8.04,5.46,9.58,.47,1.33,1.46,4.38,1.75,8.44,.36,5-.48,8.92-1.01,10.74-.99,3.4-2.4,6.62-4.37,9.57-1.78,2.66-3.8,5.02-6.06,7.07-4.51,4.1-8.88,6.03-12.35,7.54-5.07,2.2-9.18,3.13-12.62,3.9-7.04,1.56-11.04,1.97-16.51,2.8-6.91,1.04-12.43,2.41-23.47,5.14,0,0-13.45,3.3-24.11,8.13-.77,.35-3.64,1.75-6.83,4.3-1.82,1.45-3.11,2.57-4.08,4.5-.35,.71-2.23,4.46-.55,7.4,1.22,2.13,3.7,2.79,4.61,3.01,5.63,1.4,9.18-2.75,21.01-7.75,5.06-2.14,9.04-3.33,10.47-3.79,5.41-1.73,10.96-2.83,16.61-3.46,6.2-.7,10.91-.98,12.41-1.02,6.34-.16,11.15,.27,14.19,.56,3.12,.29,6.87,.79,11.74,1.62,6.29,1.07,12.36,2.95,18.18,5.58,6.14,2.77,10.18,5.78,11.02,6.4,5.37,3.97,8.7,7.86,9.5,8.82,6.24,7.43,8.73,14.76,9.87,18.2,.71,2.16,2.63,8.39,2.95,16.7,.28,7.27-.76,12.82-1.36,15.71Z"/></svg>