<?xml version="1.0" encoding="UTF-8"?><svg id="a" xmlns="http://www.w3.org/2000/svg" viewBox="0 0 600 600"><defs><style>.b{fill:#3b3c7f;}</style></defs><g><path class="b" d="M172.79,406.8c.76,0,1.37-.17,1.8-.52,.44-.34,.77-.91,.98-1.7s.35-1.81,.41-3.06,.09-2.79,.09-4.61v-16.39c0-1.82-.03-3.36-.09-4.61s-.2-2.28-.41-3.06c-.21-.79-.54-1.35-.98-1.7-.44-.34-1.04-.52-1.8-.52v-.37h4.15c.79,0,1.64-.04,2.56-.11,.92-.07,1.85-.16,2.8-.26,.95-.1,1.89-.18,2.81-.26,.92-.07,1.77-.11,2.55-.11,1.26,0,2.47,.11,3.63,.33,1.16,.22,2.18,.6,3.07,1.12,.89,.53,1.61,1.22,2.14,2.09,.54,.86,.8,1.94,.8,3.25,0,1.6-.4,2.94-1.2,4.02-.8,1.08-1.79,1.99-2.99,2.71s-2.49,1.33-3.89,1.83c-1.41,.49-2.71,.95-3.9,1.38s-2.19,.87-2.98,1.33c-.8,.46-1.2,1.03-1.2,1.72,0,.42,.12,.68,.36,.79,.24,.11,.46,.17,.68,.17,.38,0,.82-.12,1.32-.35,.5-.23,1.06-.49,1.68-.78,.62-.28,1.3-.54,2.04-.78,.74-.23,1.54-.35,2.39-.35,1.36,0,2.64,.22,3.86,.65,1.22,.43,2.27,1.05,3.16,1.86,.89,.81,1.6,1.78,2.13,2.92,.52,1.13,.79,2.4,.79,3.8,0,1.6-.26,3.05-.79,4.35-.53,1.3-1.29,2.42-2.29,3.36-1,.93-2.24,1.66-3.72,2.18-1.48,.52-3.17,.78-5.07,.78-1.03,0-1.97-.04-2.84-.11-.87-.07-1.72-.16-2.54-.26-.82-.1-1.66-.18-2.5-.26-.85-.07-1.76-.11-2.73-.11h-4.29v-.37Zm6.33-35.73v35.14c1.1,.42,2.12,.72,3.09,.9,.96,.18,2.11,.28,3.45,.28,1.67,0,3.17-.23,4.5-.68,1.34-.46,2.47-1.11,3.41-1.96,.94-.85,1.66-1.89,2.16-3.12,.5-1.23,.75-2.61,.75-4.13,0-1.11-.15-2.2-.45-3.28-.3-1.08-.74-2.05-1.32-2.92s-1.3-1.56-2.16-2.08c-.86-.53-1.85-.79-2.97-.79-.74,0-1.46,.12-2.14,.35-.69,.23-1.35,.49-1.97,.76s-1.21,.52-1.79,.76c-.57,.23-1.12,.35-1.64,.35-.33,0-.62-.1-.88-.3-.25-.2-.38-.52-.38-.96,0-.81,.33-1.52,1-2.12,.67-.6,1.5-1.18,2.48-1.73s2.07-1.11,3.23-1.66c1.17-.55,2.25-1.17,3.23-1.86,.99-.69,1.82-1.49,2.48-2.4,.67-.91,1-1.98,1-3.21,0-1.16-.25-2.13-.73-2.93-.49-.8-1.14-1.45-1.95-1.96-.81-.5-1.73-.87-2.77-1.11-1.04-.23-2.1-.35-3.2-.35-1.17,0-2.28,.09-3.32,.26-1.05,.17-2.1,.43-3.14,.78Z"/><path class="b" d="M216.11,380.3c1.93,0,3.66,.36,5.18,1.09,1.53,.73,2.82,1.72,3.88,2.97,1.06,1.25,1.87,2.72,2.43,4.39,.56,1.67,.84,3.46,.84,5.35s-.28,3.68-.84,5.35c-.56,1.67-1.37,3.14-2.43,4.39-1.06,1.25-2.35,2.25-3.88,2.97s-3.25,1.09-5.18,1.09-3.65-.36-5.16-1.09-2.79-1.72-3.84-2.97c-1.05-1.25-1.85-2.72-2.41-4.39-.56-1.67-.84-3.46-.84-5.35s.28-3.68,.84-5.35c.56-1.67,1.37-3.14,2.41-4.39,1.05-1.25,2.33-2.25,3.84-2.97,1.51-.73,3.23-1.09,5.16-1.09Zm-9.22,13.8c0,2.02,.22,3.85,.66,5.5,.44,1.65,1.07,3.06,1.88,4.23s1.78,2.07,2.91,2.69c1.13,.63,2.39,.94,3.77,.94s2.65-.31,3.79-.94c1.14-.63,2.12-1.53,2.93-2.69s1.44-2.58,1.89-4.23,.68-3.48,.68-5.5-.23-3.88-.68-5.52c-.45-1.64-1.08-3.04-1.89-4.21s-1.79-2.07-2.93-2.69c-1.14-.63-2.41-.94-3.79-.94s-2.64,.31-3.77,.94c-1.13,.63-2.1,1.53-2.91,2.69s-1.44,2.57-1.88,4.21c-.44,1.64-.66,3.48-.66,5.52Z"/><path class="b" d="M235.81,381.04c2.07,0,4.21-.12,6.4-.37,2.19-.25,4.29-.37,6.29-.37,1.6,0,2.92,.39,3.97,1.18s1.57,1.89,1.57,3.32c0,.98-.26,1.83-.77,2.53s-1.28,1.05-2.3,1.05c-.5,0-.95-.15-1.36-.46-.4-.31-.61-.72-.61-1.24,.5-.02,.95-.3,1.34-.83,.39-.53,.59-1.17,.59-1.94,0-.86-.31-1.59-.95-2.2-.63-.6-1.59-.9-2.88-.9-.55,0-1.23,.03-2.05,.07-.82,.05-1.67,.12-2.54,.2-.87,.09-1.71,.2-2.52,.33-.81,.14-1.46,.29-1.96,.46v15.02c0,1.82,.03,3.36,.09,4.61,.06,1.25,.2,2.28,.41,3.06s.54,1.35,.98,1.7c.44,.34,1.04,.52,1.8,.52v.37h-9.65v-.37c.76,0,1.37-.17,1.8-.52,.44-.34,.77-.91,.98-1.7s.35-1.81,.41-3.06,.09-2.79,.09-4.61v-5.61c0-1.82-.03-3.36-.09-4.61s-.2-2.28-.41-3.06-.54-1.35-.98-1.7c-.44-.34-1.04-.52-1.8-.52v-.37h4.15Z"/><path class="b" d="M257.25,401.16c0,.44,.19,1.03,.55,1.75,.37,.73,.92,1.44,1.66,2.14s1.64,1.3,2.72,1.79,2.31,.73,3.72,.7c.98-.02,1.93-.18,2.86-.48s1.76-.73,2.48-1.29c.73-.57,1.31-1.26,1.75-2.08,.44-.82,.66-1.77,.66-2.82,0-1.3-.4-2.31-1.2-3.03-.8-.71-1.8-1.31-3.02-1.79-1.21-.48-2.52-.91-3.91-1.29s-2.7-.88-3.91-1.5-2.22-1.43-3.02-2.44c-.8-1.01-1.2-2.38-1.2-4.1,0-.86,.18-1.68,.55-2.45s.92-1.46,1.66-2.05c.74-.59,1.66-1.06,2.75-1.4,1.1-.34,2.37-.52,3.82-.52,1.53,0,2.84,.13,3.95,.39,1.11,.26,2.02,.56,2.73,.9,.86,.37,1.58,.8,2.18,1.29v4.36h-.14c-.69-2.14-1.78-3.77-3.25-4.89-1.48-1.12-3.18-1.68-5.11-1.68-1.12,0-2.12,.15-3,.44-.88,.29-1.62,.7-2.23,1.2-.61,.5-1.07,1.08-1.38,1.72-.31,.64-.46,1.3-.46,1.99,0,1.28,.42,2.28,1.27,3.01,.85,.73,1.9,1.33,3.16,1.83,1.26,.49,2.63,.95,4.11,1.37,1.48,.42,2.85,.95,4.11,1.59,1.26,.64,2.32,1.47,3.16,2.49,.85,1.02,1.27,2.38,1.27,4.08,0,1.35-.3,2.51-.89,3.47-.6,.96-1.38,1.74-2.36,2.34s-2.11,1.04-3.39,1.31-2.62,.41-4,.41c-3.74,0-6.74-.75-9.01-2.25v-4.5h.36Zm9.26-23.07l-3.93-3.17,.21-.37,3.82,1.7,3.82-1.7,.21,.37-4.15,3.17Z"/><path class="b" d="M279.41,381.04c1,0,1.84-.16,2.52-.48,.68-.32,1.24-.74,1.68-1.27s.79-1.12,1.04-1.77c.25-.65,.43-1.31,.54-1.97s.17-1.3,.2-1.9c.02-.6,.04-1.11,.04-1.53h.36v8.93h2.72v.37h-2.72v17.72c0,1.43,0,2.64-.02,3.64-.01,1,.01,1.8,.07,2.4,.06,.6,.17,1.04,.34,1.31,.17,.27,.42,.41,.75,.41,.29,0,.55-.09,.8-.28s.47-.39,.66-.61c.21-.25,.42-.53,.61-.85l.36,.18c-.48,.79-1.02,1.42-1.64,1.88-.62,.47-1.38,.7-2.29,.7-1.02,0-1.73-.38-2.13-1.14-.39-.76-.59-1.76-.59-2.99v-22.37h-3.29v-.37Z"/><path class="b" d="M291.14,407.17v-.37c.76,0,1.37-.17,1.8-.52,.44-.34,.77-.91,.98-1.7s.35-1.81,.41-3.06,.09-2.79,.09-4.61v-5.61c0-1.82-.03-3.36-.09-4.61s-.2-2.28-.41-3.06-.54-1.35-.98-1.7c-.44-.34-1.04-.52-1.8-.52v-.37h4.08c.74,0,1.55-.04,2.43-.11,.88-.07,1.76-.16,2.63-.26,.87-.1,1.69-.18,2.47-.26,.77-.07,1.41-.11,1.91-.11,.79,0,1.73,.07,2.82,.2,1.1,.14,2.14,.47,3.14,1.02,1,.54,1.85,1.36,2.54,2.45,.69,1.09,1.04,2.61,1.04,4.56v8.38c0,1.82,.03,3.36,.09,4.61,.06,1.25,.2,2.28,.41,3.06,.21,.79,.54,1.35,.98,1.7,.44,.34,1.04,.52,1.8,.52v.37h-9.65v-.37c.76,0,1.36-.17,1.8-.52,.44-.34,.77-.91,.98-1.7s.35-1.81,.41-3.06c.06-1.25,.09-2.79,.09-4.61v-4.21c-.02-1.03-.04-2.17-.04-3.4,0-2.07-.3-3.67-.91-4.82-.61-1.14-1.34-1.99-2.2-2.53-.86-.54-1.74-.87-2.64-.98-.91-.11-1.67-.17-2.29-.17-.9,0-1.84,.1-2.8,.3s-1.88,.46-2.73,.77v15.02c0,1.82,.03,3.36,.09,4.61,.06,1.25,.2,2.28,.41,3.06s.54,1.35,.98,1.7c.44,.34,1.04,.52,1.8,.52v.37h-9.65Z"/><path class="b" d="M319.27,407.17v-.37c.76,0,1.36-.17,1.8-.52,.44-.34,.77-.91,.98-1.7s.35-1.81,.41-3.06c.06-1.25,.09-2.79,.09-4.61v-5.61c0-1.82-.03-3.36-.09-4.61-.06-1.25-.2-2.28-.41-3.06s-.54-1.35-.98-1.7c-.44-.34-1.04-.52-1.8-.52v-.37h6.36v15.87c0,1.82,.03,3.36,.09,4.61,.06,1.25,.2,2.28,.41,3.06,.21,.79,.54,1.35,.98,1.7,.44,.34,1.04,.52,1.8,.52v.37h-9.65Zm4.65-33.44c.67,0,1.23,.24,1.7,.72s.7,1.06,.7,1.75-.23,1.27-.7,1.75c-.46,.48-1.03,.72-1.7,.72s-1.23-.24-1.7-.72c-.46-.48-.7-1.06-.7-1.75s.23-1.27,.7-1.75c.46-.48,1.03-.72,1.7-.72Z"/><path class="b" d="M330.7,406.8c.76,0,1.36-.17,1.8-.52,.44-.34,.77-.91,.98-1.7s.35-1.81,.41-3.06c.06-1.25,.09-2.79,.09-4.61v-16.39c0-1.82-.03-3.36-.09-4.61-.06-1.25-.2-2.28-.41-3.06-.21-.79-.54-1.35-.98-1.7-.44-.34-1.04-.52-1.8-.52v-.37h6.36v26.65c0,1.82,.03,3.36,.09,4.61,.06,1.25,.2,2.28,.41,3.06,.21,.79,.54,1.35,.98,1.7,.44,.34,1.04,.52,1.8,.52v.37h-9.65v-.37Zm14.48-8.78c-.74-1.38-1.53-2.41-2.36-3.1s-1.61-1.24-2.32-1.64-1.31-.76-1.79-1.05c-.48-.3-.71-.73-.71-1.29s.26-1.02,.77-1.37c.51-.34,1.15-.65,1.93-.92,.77-.27,1.61-.54,2.5-.79,.89-.26,1.73-.58,2.5-.98,.77-.39,1.42-.89,1.93-1.48s.77-1.35,.77-2.29c0-.49-.12-.9-.38-1.22-.25-.32-.68-.48-1.3-.48v-.37h4.29c.26,0,.43,.1,.5,.3,.07,.2,.11,.42,.11,.66,0,1.21-.33,2.21-.98,3.01-.65,.8-1.47,1.46-2.45,1.97-.98,.52-2.04,.93-3.2,1.24s-2.22,.59-3.2,.85c-.98,.26-1.79,.52-2.45,.79-.65,.27-.98,.63-.98,1.07,0,.54,.34,.94,1.02,1.18,.68,.25,1.52,.56,2.52,.94,1,.38,2.06,.92,3.18,1.62,1.12,.7,2.12,1.79,3,3.27,.36,.62,.64,1.21,.86,1.77,.21,.57,.39,1.13,.54,1.68,.14,.55,.29,1.12,.45,1.7,.16,.58,.35,1.18,.59,1.79,.26,.62,.62,1.09,1.07,1.42s1.12,.5,2,.5v.37h-4.11c-.43,0-.78-.13-1.05-.39-.28-.26-.51-.58-.71-.96-.2-.38-.36-.81-.48-1.27-.12-.47-.24-.91-.36-1.33-.26-1.08-.53-2.06-.79-2.93s-.56-1.63-.89-2.27Z"/><path class="b" d="M366.91,380.3c1.93,0,3.66,.36,5.18,1.09,1.53,.73,2.82,1.72,3.88,2.97,1.06,1.25,1.87,2.72,2.43,4.39,.56,1.67,.84,3.46,.84,5.35s-.28,3.68-.84,5.35c-.56,1.67-1.37,3.14-2.43,4.39-1.06,1.25-2.35,2.25-3.88,2.97s-3.25,1.09-5.18,1.09-3.65-.36-5.16-1.09-2.79-1.72-3.84-2.97c-1.05-1.25-1.85-2.72-2.41-4.39-.56-1.67-.84-3.46-.84-5.35s.28-3.68,.84-5.35c.56-1.67,1.37-3.14,2.41-4.39,1.05-1.25,2.33-2.25,3.84-2.97,1.51-.73,3.23-1.09,5.16-1.09Zm-9.22,13.8c0,2.02,.22,3.85,.66,5.5,.44,1.65,1.07,3.06,1.88,4.23s1.78,2.07,2.91,2.69c1.13,.63,2.39,.94,3.77,.94s2.65-.31,3.79-.94c1.14-.63,2.12-1.53,2.93-2.69s1.44-2.58,1.89-4.23,.68-3.48,.68-5.5-.23-3.88-.68-5.52c-.45-1.64-1.08-3.04-1.89-4.21s-1.79-2.07-2.93-2.69c-1.14-.63-2.41-.94-3.79-.94s-2.64,.31-3.77,.94c-1.13,.63-2.1,1.53-2.91,2.69s-1.44,2.57-1.88,4.21c-.44,1.64-.66,3.48-.66,5.52Z"/><path class="b" d="M383.64,381.04c.81,0,1.46,.31,1.95,.94,.49,.63,.84,1.3,1.05,2.01,.47,1.57,.91,3.05,1.3,4.43,.39,1.38,.79,2.76,1.2,4.13,.4,1.38,.83,2.8,1.27,4.28s.95,3.11,1.52,4.91c.33,1.03,.72,1.81,1.16,2.33,.44,.52,.92,.81,1.45,.89,.9-2.98,1.75-5.72,2.52-8.23s1.5-4.95,2.16-7.31c.21-.74,.39-1.57,.54-2.49s.16-1.8,.05-2.62-.39-1.51-.84-2.07c-.45-.55-1.18-.83-2.18-.83h-.79v-.37h9.4v.37h-.61c-.62,0-1.19,.27-1.71,.81-.53,.54-1,1.19-1.41,1.94-.42,.75-.78,1.54-1.07,2.36-.3,.82-.53,1.52-.7,2.08-.88,2.9-1.78,5.91-2.7,9.01-.92,3.1-1.96,6.53-3.13,10.3-.62,.07-1.25-.1-1.89-.52-.55-.34-1.12-.94-1.73-1.79-.61-.85-1.19-2.13-1.73-3.86-.45-1.53-.88-2.93-1.27-4.23-.39-1.29-.77-2.53-1.12-3.73s-.71-2.36-1.05-3.51c-.35-1.14-.7-2.34-1.05-3.6-.17-.57-.36-1.16-.57-1.77s-.48-1.18-.79-1.7c-.31-.52-.69-.95-1.13-1.29-.44-.34-.98-.52-1.63-.52h-.86v-.37h4.4Z"/><path class="b" d="M405.41,399.72c0-1.62,.26-3,.77-4.12,.51-1.12,1.2-2.06,2.05-2.82s1.83-1.38,2.91-1.86c1.08-.48,2.19-.89,3.3-1.22,1.12-.33,2.22-.63,3.31-.89,1.08-.26,2.05-.55,2.91-.89,.86-.33,1.54-.73,2.05-1.2,.51-.47,.77-1.08,.77-1.84s-.19-1.38-.57-1.92c-.38-.54-.87-.98-1.47-1.31s-1.27-.58-2.02-.74c-.75-.16-1.48-.24-2.2-.24-.86,0-1.69,.08-2.48,.24s-1.51,.41-2.13,.76-1.12,.79-1.5,1.33c-.38,.54-.57,1.19-.57,1.96,0,.34,.06,.65,.18,.9,.12,.26,.26,.46,.41,.61,.15,.15,.31,.23,.48,.26,.17,.03,.29,0,.36-.07,.09,.27,.09,.54,0,.79-.1,.26-.24,.49-.43,.68s-.43,.36-.71,.48-.57,.18-.86,.18c-.76,0-1.38-.29-1.86-.89s-.71-1.28-.71-2.07c0-.91,.25-1.71,.75-2.4,.5-.69,1.19-1.27,2.06-1.74,.87-.47,1.91-.82,3.11-1.05,1.2-.23,2.51-.35,3.91-.35,1,0,2.05,.11,3.14,.31s2.1,.52,3.02,.92c.92,.41,1.67,.89,2.25,1.46,.58,.57,.88,1.22,.88,1.96s-.26,1.32-.77,1.75c-.51,.43-1.19,.79-2.04,1.07s-1.8,.53-2.88,.74c-1.07,.21-2.17,.46-3.31,.76-1.13,.3-2.23,.68-3.3,1.14-1.07,.47-2.03,1.11-2.88,1.92-.85,.81-1.53,1.83-2.04,3.06s-.77,2.74-.77,4.54c0,.96,.14,1.85,.43,2.68,.29,.82,.69,1.54,1.2,2.14,.51,.6,1.13,1.08,1.84,1.42s1.51,.52,2.39,.52c.98,0,1.98-.27,3-.81,1.03-.54,1.97-1.4,2.82-2.58,.86-1.18,1.56-2.71,2.11-4.59,.55-1.88,.82-4.17,.82-6.85,0-.42-.04-.81-.11-1.16-.07-.36-.24-.57-.5-.65,0-.12,.09-.24,.27-.35,.18-.11,.41-.17,.7-.17,.64,0,1.16,.16,1.55,.48,.39,.32,.69,.75,.89,1.29,.2,.54,.33,1.16,.39,1.85,.06,.69,.09,1.4,.09,2.14v2.05c0,.55,0,1.09,.02,1.61,.01,.52,.02,1.08,.02,1.7v2.4c0,.76,.09,1.39,.29,1.88s.43,.88,.71,1.16c.29,.28,.58,.47,.89,.57,.31,.1,.58,.15,.82,.15v.37h-2.54c-.95,0-1.76-.41-2.41-1.24-.66-.82-.98-1.94-.98-3.34v-6.31c-.31,1.58-.71,3.07-1.2,4.48-.49,1.42-1.12,2.65-1.89,3.71-.78,1.06-1.71,1.9-2.81,2.51-1.1,.62-2.43,.92-4,.92-1.14,0-2.2-.2-3.18-.61-.98-.41-1.82-.97-2.54-1.7s-1.27-1.59-1.66-2.6c-.39-1.01-.59-2.1-.59-3.29Z"/><path class="b" d="M431,407.17v-.37c.76,0,1.37-.17,1.8-.52,.44-.34,.77-.91,.98-1.7s.35-1.81,.41-3.06,.09-2.79,.09-4.61v-5.61c0-1.82-.03-3.36-.09-4.61s-.2-2.28-.41-3.06-.54-1.35-.98-1.7c-.44-.34-1.04-.52-1.8-.52v-.37h4.08c.74,0,1.55-.04,2.43-.11,.88-.07,1.76-.16,2.63-.26,.87-.1,1.69-.18,2.47-.26,.77-.07,1.41-.11,1.91-.11,.79,0,1.73,.07,2.82,.2,1.1,.14,2.14,.47,3.14,1.02,1,.54,1.85,1.36,2.54,2.45,.69,1.09,1.04,2.61,1.04,4.56v8.38c0,1.82,.03,3.36,.09,4.61,.06,1.25,.2,2.28,.41,3.06,.21,.79,.54,1.35,.98,1.7,.44,.34,1.04,.52,1.8,.52v.37h-9.65v-.37c.76,0,1.36-.17,1.8-.52,.44-.34,.77-.91,.98-1.7s.35-1.81,.41-3.06c.06-1.25,.09-2.79,.09-4.61v-4.21c-.02-1.03-.04-2.17-.04-3.4,0-2.07-.3-3.67-.91-4.82-.61-1.14-1.34-1.99-2.2-2.53-.86-.54-1.74-.87-2.64-.98-.91-.11-1.67-.17-2.29-.17-.9,0-1.84,.1-2.8,.3s-1.88,.46-2.73,.77v15.02c0,1.82,.03,3.36,.09,4.61,.06,1.25,.2,2.28,.41,3.06s.54,1.35,.98,1.7c.44,.34,1.04,.52,1.8,.52v.37h-9.65Z"/><path class="b" d="M456.52,422.08c.55,.44,1.24,.66,2.07,.66s1.46-.24,1.95-.72c.49-.48,.86-1.07,1.11-1.77s.41-1.46,.48-2.27c.07-.81,.11-1.55,.11-2.21v-24.47c0-1.82-.03-3.36-.09-4.61s-.2-2.28-.41-3.06-.54-1.35-.98-1.7c-.44-.34-1.04-.52-1.8-.52v-.37h6.36v34.18c0,.94-.13,1.88-.39,2.84-.26,.96-.66,1.83-1.2,2.6-.54,.78-1.2,1.4-1.98,1.88-.79,.48-1.71,.72-2.75,.72-.62,0-1.14-.07-1.57-.22-.43-.15-.81-.35-1.14-.59l.25-.37Zm7.26-43.4c-.67,0-1.23-.24-1.7-.72-.46-.48-.7-1.06-.7-1.75s.23-1.27,.7-1.75c.46-.48,1.03-.72,1.7-.72s1.23,.24,1.7,.72,.7,1.06,.7,1.75-.23,1.27-.7,1.75c-.46,.48-1.03,.72-1.7,.72Z"/><path class="b" d="M470.46,394.11c0-1.89,.28-3.68,.84-5.35,.56-1.67,1.36-3.14,2.41-4.39s2.33-2.25,3.84-2.97c1.51-.73,3.24-1.09,5.17-1.09s3.58,.26,4.95,.79c1.37,.53,2.5,1.21,3.39,2.03,.89,.82,1.55,1.73,1.97,2.71,.42,.98,.62,1.94,.62,2.88,0,2.09-.56,3.73-1.68,4.91-1.12,1.18-2.72,1.77-4.79,1.77-1.43,0-2.65-.17-3.65-.52-1-.34-1.9-.72-2.7-1.13s-1.55-.78-2.27-1.13c-.71-.34-1.51-.52-2.39-.52-.43,0-.82,.12-1.16,.35-.35,.23-.54,.42-.59,.57l-.14-.04c0-.76,.32-1.44,.95-2.05,.63-.6,1.57-.9,2.81-.9,.93,0,1.81,.26,2.64,.78,.83,.52,1.63,1.08,2.39,1.68,.76,.6,1.5,1.16,2.22,1.68s1.43,.77,2.14,.77c.88,0,1.61-.35,2.2-1.05s.98-1.58,1.2-2.64c.21-1.06,.23-2.2,.04-3.41-.19-1.22-.61-2.36-1.25-3.41-.64-1.06-1.54-1.94-2.68-2.64-1.14-.7-2.57-1.05-4.29-1.05-1.81,0-3.3,.45-4.48,1.35-1.18,.9-2.12,2.01-2.81,3.34-.69,1.33-1.17,2.76-1.45,4.3-.28,1.54-.4,2.96-.38,4.26,.02,1.7,.27,3.32,.75,4.85s1.16,2.88,2.05,4.04c.89,1.16,1.98,2.07,3.27,2.75s2.75,1.01,4.4,1.01c.71,0,1.52-.1,2.41-.31,.89-.21,1.78-.57,2.64-1.07,.87-.5,1.69-1.16,2.45-1.97,.76-.81,1.36-1.81,1.79-2.99l.5,.22c-.93,2.21-2.34,4-4.23,5.35-1.89,1.35-4.18,2.03-6.85,2.03-1.93,0-3.65-.36-5.17-1.09-1.51-.73-2.79-1.72-3.84-2.97s-1.85-2.72-2.41-4.39c-.56-1.67-.84-3.46-.84-5.35Z"/></g><g><path class="b" d="M285.35,190.81c9.26,5.99,12.44,15.76,13.37,18.59,5.51,16.92-1.84,35.32-8.75,43.54-3.47,4.13-6.52,8.6-9.94,12.77-1,1.21-2.92,3.74-4.8,7.43-.76,1.48-1.44,3.27-2.11,5.86-8.36,32.39,20.15,57.91,10.84,68.88-4.8,5.65-17.82,5.3-26.15,0-22.93-14.58-14.66-69-11.48-89.92,1.92-12.6,6.09-32.59,5.19-61.61-.14-4.42-.36-8.07-.53-10.5,2.62-.37,6.3-.72,10.68-.58,6.78,.22,15.81,.44,23.68,5.54Z"/><path class="b" d="M423.25,309.46c-.42,2.01-.87,4.29-1.94,7.2-2.04,5.54-4.82,9.4-6.26,11.22-3.58,4.54-7.19,7.11-10.08,9.14-5.59,3.91-10.54,5.85-13.76,7.09-3.13,1.21-6.37,2.11-9.61,2.97-4.53,1.2-9.11,2.07-13.73,2.74-2.73,.39-4.71,.57-7.59,.84-5.33,.5-9.74,.76-12.81,.9-18.02,0-36.04,0-54.06,0-.44-3.41-.78-8.28-.2-14.06,.58-5.83,1.67-15.4,8.17-24.91,2.21-3.23,7.53-10.81,17.36-14.88,9.61-3.98,18.82-2.64,27.12-1.44,5.26,.76,10.89,2.21,14.07,3.02,5.06,1.3,9.23,2.6,12.22,3.59,2.86,.73,5.79-.76,6.83-3.3,1.16-2.83-.29-6.3-3.36-7.52-4.03-2.1-10.54-5.01-19.01-6.66-4.7-.91-9.14-1.22-18.02-1.82-10.52-.72-15.42-.58-21.9-3.38-3.31-1.43-5.85-3.11-7.85-5.66-2.38-3.04-3.12-6.18-3.42-7.53-.28-1.28-1-4.42-.12-8.23,.82-3.51,2.72-6.44,4.98-9.18,2.47-3,5.39-5.53,8.47-7.85,4.86-3.66,6.91-4.78,12.21-8.36,8.72-5.9,13.15-8.95,16.72-13.81,3.84-5.23,4.58-9.09,4.77-10.18,.29-1.69,.99-6.17-1.19-10.97-2.3-5.07-6.46-7.52-8.78-8.84-2.13-1.21-5.68-2.84-18.39-3.72-4.3-.3-10.17-.54-17.21-.35-1.67,.03-2.99-1.38-2.89-2.96,.09-1.51,1.48-2.73,3.08-2.59,33.45-.46,58.14-.17,65.39,.54,3.19,.31,5.84,.99,7.7,1.57,6.11,1.92,9.68,4.76,10.6,5.51,1.98,1.63,3.26,3.14,3.73,3.71,2.66,3.26,3.88,6.35,4.31,7.56,.37,1.05,1.15,3.46,1.38,6.66,.29,3.95-.38,7.05-.8,8.48-.78,2.68-1.89,5.23-3.45,7.56-1.4,2.1-3,3.96-4.79,5.58-3.56,3.24-7.01,4.76-9.76,5.95-4,1.74-7.25,2.47-9.97,3.08-5.56,1.23-8.72,1.56-13.04,2.21-5.45,.82-9.81,1.9-18.54,4.06,0,0-10.62,2.61-19.04,6.42-.61,.28-2.87,1.39-5.39,3.39-1.43,1.15-2.46,2.03-3.22,3.55-.28,.56-1.76,3.52-.44,5.85,.96,1.68,2.92,2.2,3.64,2.38,4.45,1.1,7.25-2.17,16.59-6.12,3.99-1.69,7.14-2.63,8.26-2.99,4.27-1.37,8.66-2.23,13.12-2.73,4.9-.55,8.62-.78,9.8-.81,5.01-.13,8.81,.22,11.2,.44,2.46,.23,5.42,.62,9.27,1.28,4.97,.84,9.76,2.33,14.36,4.41,4.85,2.19,8.04,4.56,8.7,5.06,4.24,3.13,6.87,6.21,7.5,6.96,4.92,5.87,6.9,11.66,7.79,14.37,.56,1.71,2.08,6.62,2.33,13.19,.22,5.74-.6,10.12-1.07,12.4Z"/></g></svg>