<?xml version="1.0" encoding="UTF-8"?><svg id="a" xmlns="http://www.w3.org/2000/svg" viewBox="0 0 600 600"><defs><style>.b{fill:#3b3c7f;}</style></defs><path class="b" d="M439.67,396.73c-.73,3.53-1.52,7.53-3.4,12.63-3.57,9.71-8.45,16.48-10.97,19.68-6.27,7.97-12.6,12.47-17.67,16.02-9.8,6.86-18.49,10.25-24.12,12.43-5.49,2.12-11.16,3.7-16.85,5.21-7.94,2.1-15.97,3.64-24.08,4.81-4.79,.69-8.25,1-13.31,1.48-9.35,.88-17.07,1.33-22.47,1.58-31.59,0-63.19,0-94.78-.01-.77-5.99-1.36-14.52-.36-24.65,1.01-10.23,2.93-27,14.32-43.68,3.87-5.67,13.2-18.96,30.43-26.09,16.85-6.97,33-4.64,47.55-2.53,9.23,1.34,19.09,3.87,24.68,5.3,8.87,2.28,16.19,4.56,21.43,6.3,5.02,1.27,10.15-1.33,11.97-5.79,2.03-4.96-.5-11.04-5.88-13.19-7.07-3.68-18.48-8.79-33.32-11.68-8.23-1.6-16.02-2.13-31.59-3.2-18.45-1.26-27.03-1.02-38.39-5.92-5.81-2.5-10.25-5.44-13.76-9.92-4.17-5.33-5.47-10.83-5.99-13.21-.49-2.24-1.76-7.75-.21-14.44,1.44-6.15,4.77-11.29,8.72-16.1,4.33-5.26,9.44-9.7,14.85-13.77,8.52-6.42,12.12-8.38,21.4-14.66,15.29-10.35,23.06-15.7,29.31-24.21,6.73-9.17,8.04-15.93,8.36-17.85,.5-2.96,1.73-10.82-2.09-19.23-4.03-8.89-11.33-13.18-15.4-15.51-3.73-2.13-9.97-4.98-32.24-6.52-7.54-.52-17.84-.95-30.17-.62-2.92,.05-5.25-2.42-5.08-5.18,.17-2.66,2.6-4.79,5.39-4.55,58.66-.8,101.95-.31,114.65,.94,5.59,.55,10.23,1.73,13.5,2.76,10.71,3.37,16.98,8.34,18.58,9.66,3.47,2.85,5.72,5.5,6.53,6.5,4.67,5.72,6.8,11.13,7.56,13.26,.65,1.84,2.02,6.06,2.42,11.68,.5,6.93-.66,12.35-1.4,14.88-1.37,4.7-3.32,9.16-6.05,13.25-2.46,3.69-5.27,6.95-8.4,9.79-6.25,5.68-12.3,8.35-17.11,10.44-7.02,3.05-12.71,4.34-17.48,5.39-9.74,2.16-15.28,2.73-22.86,3.88-9.56,1.44-17.21,3.33-32.5,7.11,0,0-18.62,4.57-33.38,11.26-1.07,.49-5.04,2.43-9.45,5.95-2.52,2.01-4.31,3.56-5.65,6.23-.49,.98-3.09,6.18-.77,10.25,1.69,2.95,5.13,3.86,6.38,4.17,7.8,1.94,12.71-3.81,29.09-10.73,7-2.96,12.51-4.61,14.49-5.25,7.48-2.4,15.18-3.92,23-4.79,8.59-.97,15.11-1.36,17.18-1.41,8.78-.22,15.44,.38,19.64,.77,4.32,.4,9.51,1.09,16.26,2.24,8.71,1.48,17.11,4.09,25.17,7.72,8.5,3.84,14.09,8,15.26,8.86,7.44,5.49,12.04,10.88,13.15,12.21,8.63,10.29,12.09,20.44,13.66,25.2,.99,2.99,3.64,11.61,4.09,23.12,.39,10.06-1.05,17.75-1.88,21.75Z"/></svg>