<svg width="123" height="104" viewBox="0 0 123 104" fill="none" xmlns="http://www.w3.org/2000/svg">
<path d="M121.814 37.0247C121.814 56.9561 106.257 73.0494 87.1435 73.0494C68.0305 73.0494 52.4734 56.9561 52.4734 37.0247C52.4734 17.0934 68.0305 1 87.1435 1C106.257 1 121.814 17.0934 121.814 37.0247Z" stroke="#2E2D5F" stroke-width="2"/>
<path d="M92.0133 51.925C92.0133 71.5952 76.4675 87.4982 57.3432 87.4982C38.2188 87.4982 22.673 71.5952 22.673 51.925C22.673 32.2548 38.2188 16.3518 57.3432 16.3518C76.4675 16.3518 92.0133 32.2548 92.0133 51.925Z" stroke="#2E2D5F" stroke-width="2"/>
<path d="M70.3403 66.825C70.3403 86.7564 54.7831 102.85 35.6702 102.85C16.5572 102.85 1 86.7564 1 66.825C1 46.8937 16.5572 30.8003 35.6702 30.8003C54.7831 30.8003 70.3403 46.8937 70.3403 66.825Z" stroke="#2E2D5F" stroke-width="2"/>
</svg>
