<svg width="150" height="150" viewBox="0 0 150 150" fill="none" xmlns="http://www.w3.org/2000/svg">
<path d="M135.814 60.0247C135.814 79.9561 120.257 96.0494 101.144 96.0494C82.0305 96.0494 66.4734 79.9561 66.4734 60.0247C66.4734 40.0934 82.0305 24 101.144 24C120.257 24 135.814 40.0934 135.814 60.0247Z" stroke="#343475" stroke-width="2"/>
<path d="M106.013 74.925C106.013 94.5952 90.4675 110.498 71.3431 110.498C52.2188 110.498 36.673 94.5952 36.673 74.925C36.673 55.2548 52.2188 39.3518 71.3431 39.3518C90.4675 39.3518 106.013 55.2548 106.013 74.925Z" stroke="#343475" stroke-width="2"/>
<path d="M84.3403 89.825C84.3403 109.756 68.7831 125.85 49.6702 125.85C30.5572 125.85 15 109.756 15 89.825C15 69.8937 30.5572 53.8003 49.6702 53.8003C68.7831 53.8003 84.3403 69.8937 84.3403 89.825Z" stroke="#343475" stroke-width="2"/>
</svg>
