<svg width="108" height="97" viewBox="0 0 108 97" fill="none" xmlns="http://www.w3.org/2000/svg">
<path d="M70.3403 37.0247C70.3403 56.9561 54.7831 73.0494 35.6702 73.0494C16.5572 73.0494 1 56.9561 1 37.0247C1 17.0934 16.5572 1 35.6702 1C54.7831 1 70.3403 17.0934 70.3403 37.0247Z" stroke="#2E2D5F" stroke-width="2"/>
<path d="M106.462 37.0247C106.462 56.9561 90.9048 73.0494 71.7918 73.0494C52.6788 73.0494 37.1217 56.9561 37.1217 37.0247C37.1217 17.0934 52.6788 1 71.7918 1C90.9048 1 106.462 17.0934 106.462 37.0247Z" stroke="#2E2D5F" stroke-width="2"/>
<path d="M89.3042 59.6006C89.3042 79.532 73.747 95.6254 54.634 95.6254C35.521 95.6254 19.9639 79.532 19.9639 59.6006C19.9639 39.6693 35.521 23.5759 54.634 23.5759C73.747 23.5759 89.3042 39.6693 89.3042 59.6006Z" stroke="#2E2D5F" stroke-width="2"/>
</svg>
