<svg width="150" height="150" viewBox="0 0 150 150" fill="none" xmlns="http://www.w3.org/2000/svg">
<path d="M91.3403 64.0247C91.3403 83.9561 75.7831 100.049 56.6702 100.049C37.5572 100.049 22 83.9561 22 64.0247C22 44.0934 37.5572 28 56.6702 28C75.7831 28 91.3403 44.0934 91.3403 64.0247Z" stroke="#343475" stroke-width="2"/>
<path d="M127.462 64.0247C127.462 83.9561 111.905 100.049 92.7919 100.049C73.6789 100.049 58.1217 83.9561 58.1217 64.0247C58.1217 44.0934 73.6789 28 92.7919 28C111.905 28 127.462 44.0934 127.462 64.0247Z" stroke="#343475" stroke-width="2"/>
<path d="M110.304 86.6006C110.304 106.532 94.747 122.625 75.634 122.625C56.521 122.625 40.9639 106.532 40.9639 86.6006C40.9639 66.6693 56.521 50.5759 75.634 50.5759C94.747 50.5759 110.304 66.6693 110.304 86.6006Z" stroke="#343475" stroke-width="2"/>
</svg>
